<svg width="28" height="28" viewBox="0 0 28 28" fill="none" xmlns="http://www.w3.org/2000/svg">
<path d="M14 2.68628L25.3138 14L14 25.3137L2.68634 14L14 2.68628ZM14 22.4853L22.4853 14L14 5.51471L5.51477 14L14 22.4853Z" fill="#467FF1"/>
<path d="M5.51477 14.0001L14.0001 5.51477L22.4853 14.0001L14.0001 22.4853L5.51477 14.0001Z" fill="#1855D1"/>
<path d="M8.3432 14.0001L11.1716 11.1716L14.0001 14.0001L11.1716 16.8285L8.3432 14.0001Z" fill="#DBDCDD"/>
<path d="M11.1716 11.1717L14.0001 8.34326L16.8285 11.1717L14.0001 14.0001L11.1716 11.1717Z" fill="white"/>
<path d="M11.1716 16.8284L14.0001 14L16.8285 16.8284L14.0001 19.6569L11.1716 16.8284Z" fill="#B8B9BA"/>
<path d="M14.0001 14.0001L16.8285 11.1716L19.6569 14.0001L16.8285 16.8285L14.0001 14.0001Z" fill="#DBDCDD"/>
<path d="M14 -0.14209L28.1422 14L14 28.1422L-0.14209 14L14 -0.14209ZM14 25.3138L25.3138 14L14 2.68634L2.68634 14L14 25.3138Z" fill="#0E0E0F"/>
</svg>